<?xml version="1.0" encoding="utf-8"?>
<!-- Generator: Adobe Illustrator 22.0.0, SVG Export Plug-In . SVG Version: 6.00 Build 0)  -->
<svg version="1.1" id="图层_1" xmlns="http://www.w3.org/2000/svg" xmlns:xlink="http://www.w3.org/1999/xlink" x="0px" y="0px"
	 viewBox="0 0 27 27" style="enable-background:new 0 0 27 27;" xml:space="preserve">
<style type="text/css">
	.st0{fill:#F9686B;}
	.st1{fill:#FFFFFF;}
</style>
<g>
	<path class="st0" d="M24,0h-3.1H6.1H3C1,0,0,1,0,3V24c0,1.8,0.9,2.8,2.6,2.9v0H3h9.3h2.5h8.6H24c2,0,3-1,3-3V3C27,1,26,0,24,0z"/>
	<g>
		<polygon class="st1" points="16,19.7 11,19.7 11,20.9 7.3,20.9 7.3,22.2 19.7,22.2 19.7,20.9 16,20.9 		"/>
		<path class="st1" d="M20.2,4.8H6.8C5.6,4.8,4.6,6,4.6,7.3V16c0,1.4,1,2.5,2.2,2.5h13.4c1.2,0,2.2-1.1,2.2-2.5V7.3
			C22.4,6,21.4,4.8,20.2,4.8z M13.5,16.2c-2.4,0-4.4-2-4.4-4.4c0-2.4,2-4.4,4.4-4.4s4.4,2,4.4,4.4C17.9,14.2,15.9,16.2,13.5,16.2z"
			/>
		<path class="st1" d="M10.3,11.8c0,1.8,1.4,3.2,3.2,3.2c0.4,0,0.8-0.1,1.1-0.2l-3.2-5.4C10.7,9.9,10.3,10.8,10.3,11.8z"/>
		<path class="st1" d="M13.5,8.6c-0.3,0-0.6,0-0.9,0.1l3.2,5.3c0.6-0.6,1-1.4,1-2.3C16.7,10,15.3,8.6,13.5,8.6z"/>
	</g>
</g>
</svg>
