<?xml version="1.0" encoding="utf-8"?>
<!-- Generator: Adobe Illustrator 22.0.0, SVG Export Plug-In . SVG Version: 6.00 Build 0)  -->
<svg version="1.1" id="图层_1" xmlns="http://www.w3.org/2000/svg" xmlns:xlink="http://www.w3.org/1999/xlink" x="0px" y="0px"
	 viewBox="0 0 27 27" style="enable-background:new 0 0 27 27;" xml:space="preserve">
<style type="text/css">
	.st0{fill:#409EFF;}
	.st1{fill:#FFFFFF;stroke:#FFFFFF;stroke-width:0.25;stroke-miterlimit:10;}
</style>
<g>
	<path class="st0" d="M24,0h-3.1H6.1H3C1,0,0,1,0,3V24c0,1.8,0.9,2.8,2.6,2.9v0H3h9.3h2.5h8.6H24c2,0,3-1,3-3V3C27,1,26,0,24,0z"/>
	<path class="st1" d="M18.7,17c-0.7,0.1-1.3,0.4-1.7,0.9l-6.1-3.9c0,0,0-0.2,0-0.4c0-0.2,0-0.4,0-0.4L17,9.2c0.4,0.6,1,0.9,1.7,0.9
		c1.4,0,2.6-1.1,2.6-2.6c0-1.4-1.2-2.6-2.6-2.6c-1.4,0-2.6,1.2-2.6,2.6c0,0.2,0,0.4,0,0.4L10,11.8c-0.4-0.6-1-0.8-1.7-0.9
		c-1.4,0-2.6,1.2-2.6,2.6c0,1.5,1.2,2.6,2.6,2.6c0.7,0,1.3-0.2,1.7-0.9l6.1,3.9c0.1,0.1,0.1,0.3,0,0.4c0.1,1.5,1.2,2.6,2.6,2.6
		c1.4,0,2.5-1.1,2.6-2.6C21.2,18.2,20.1,17.1,18.7,17"/>
</g>
</svg>
