<?xml version="1.0" encoding="utf-8"?>
<!-- Generator: Adobe Illustrator 22.0.0, SVG Export Plug-In . SVG Version: 6.00 Build 0)  -->
<svg version="1.1" id="图层_1" xmlns="http://www.w3.org/2000/svg" xmlns:xlink="http://www.w3.org/1999/xlink" x="0px" y="0px"
	 viewBox="0 0 27 27" style="enable-background:new 0 0 27 27;" xml:space="preserve">
<style type="text/css">
	.st0{fill:#FC953F;}
	.st1{fill:#FFFFFF;}
</style>
<g>
	<path class="st0" d="M24,0h-3.1H6.1H3C1,0,0,1,0,3V24c0,1.8,0.9,2.8,2.6,2.9v0H3h9.3h2.5h8.6H24c2,0,3-1,3-3V3C27,1,26,0,24,0z"/>
	<g>
		<path class="st1" d="M22.6,10.4C22.6,10.4,22.6,10.4,22.6,10.4L21,6.3c-0.3-0.8-1-1.2-1.9-1.2H7.9C7,5.1,6.3,5.5,6.1,6.3l-1.7,4.1
			v0.1c-0.1,0.4-0.2,0.8-0.2,1.1c0,1.3,0.7,2.5,1.9,3.2h0.1v0.1c0.5,0.2,1,0.3,1.6,0.3c1.1,0,2.1-0.5,2.7-1.3l0.1-0.2l0.1,0.2
			c0.7,0.8,1.7,1.3,2.7,1.3s2-0.5,2.7-1.3l0.1-0.2l0.1,0.2c0.7,0.8,1.7,1.3,2.7,1.3c0.7,0,1.2-0.2,1.7-0.4c1.1-0.6,1.9-1.9,1.9-3.2
			C22.8,11.1,22.8,10.7,22.6,10.4z M19,10.9H8c-0.4,0-0.6-0.3-0.6-0.6C7.3,10,7.6,9.7,8,9.7H19c0.4,0,0.6,0.3,0.6,0.6
			C19.6,10.7,19.3,10.9,19,10.9z"/>
		<path class="st1" d="M19.9,21.9H7c-0.9,0-1.6-0.7-1.6-1.6v-3.7c0-0.1,0-0.3,0.2-0.4C5.7,16.1,6,16.1,6,16.1s0.8,0.4,2.1,0.4
			c0.8,0,1.8-0.9,2.9-0.9c0.9,0,1.8,0.9,2.7,0.9c1,0,2-0.9,2.9-0.9c1.1,0,2.1,1,2.8,1.1c0.9,0.1,1.5-0.6,1.6-0.6
			c0.3,0,0.5,0.2,0.5,0.5v3.8C21.5,21.2,20.8,21.9,19.9,21.9z"/>
	</g>
</g>
</svg>
