<?xml version="1.0" encoding="utf-8"?>
<!-- Generator: Adobe Illustrator 22.0.0, SVG Export Plug-In . SVG Version: 6.00 Build 0)  -->
<svg version="1.1" id="图层_1" xmlns="http://www.w3.org/2000/svg" xmlns:xlink="http://www.w3.org/1999/xlink" x="0px" y="0px"
	 viewBox="0 0 27 27" style="enable-background:new 0 0 27 27;" xml:space="preserve">
<style type="text/css">
	.st0{fill:#19C692;}
	.st1{fill:#FFFFFF;}
</style>
<g>
	<path class="st0" d="M24,0h-3.1H6.1H3C1,0,0,1,0,3V24c0,1.8,0.9,2.8,2.6,2.9v0H3h9.3h2.5h8.6H24c2,0,3-1,3-3V3C27,1,26,0,24,0z"/>
	<path class="st1" d="M3.9,23.1l6.3-1.8l-4.5-4.4L3.9,23.1z M20.7,10.8l-4.5-4.5l-9.9,9.8l4.5,4.5L20.7,10.8z M22.8,7.1l-2.9-2.8
		c-0.5-0.5-1.3-0.5-1.7,0l-1.3,1.3l4.5,4.5l1.3-1.3C23.2,8.3,23.2,7.6,22.8,7.1z"/>
</g>
</svg>
